<svg xmlns="http://www.w3.org/2000/svg" viewBox="446.274169921875 592.539794921875 940.35498046875 420.98486328125" style="isolation: isolate;"><defs></defs><path d="M848.516 594.143C851.277 595.964 853.037 597.185 854.516 600.143C855.24 607.385 852.885 612.182 848.48 617.686C847.25 619.137 846.018 620.587 844.777 622.03C839.129 628.649 834.188 635.776 829.149 642.862C827.641 644.968 826.112 647.057 824.57 649.139C817.097 659.268 810.062 669.674 803.078 680.143L801.627 682.313C796.398 690.146 791.238 697.989 786.516 706.143C796.291 704.985 805.922 703.411 815.573 701.464C824.503 699.743 827.167 699.23 829.763 699.467C830.868 699.568 831.959 699.805 833.516 700.143C835.661 702.399 836.497 703.438 836.578 706.58C835.084 710.182 832.756 712.126 829.516 714.143C825.928 715.562 822.25 716.501 818.516 717.455L815.252 718.356C809.719 719.865 804.183 721.239 798.567 722.391C782.09 725.012 782.09 725.012 769.392 734.497C767.863 737.24 766.6 740.026 765.443 742.945C764.16 745.985 762.493 748.736 760.81 751.568C745.135 778.21 733.454 808.635 728.516 839.143L727.914 842.666C726.424 855.668 725.54 871.421 732.703 882.893C735.126 887.237 735.219 889.217 734.516 894.143C731.584 898.712 728.674 901.423 723.516 903.143C715.459 904.286 709.179 902.802 702.516 898.143C694.094 891.035 690.248 880.341 688.797 869.65C687.186 849.561 689.862 831.092 696.516 812.143L697.265 809.97C705.539 786.129 716.127 763.119 728.516 741.143C717.385 743.636 706.348 746.346 695.456 749.747C693.908 750.221 692.353 750.673 690.792 751.104C678.484 754.519 672.242 759.275 665.661 770.25C663.746 773.414 661.647 776.454 659.578 779.518C658.755 780.763 657.933 782.009 657.113 783.256C652.417 790.334 647.445 797.226 642.516 804.143C641.615 805.41 640.713 806.677 639.812 807.943C635.384 814.163 630.925 820.36 626.422 826.525C625.185 828.223 623.956 829.926 622.734 831.635C616.794 839.915 610.517 847.927 604.233 855.947C602.669 857.946 601.111 859.95 599.555 861.955C593.408 869.859 587.071 877.575 580.516 885.143L578.105 887.932C561.009 907.345 561.009 907.345 548.516 908.143L544.641 908.393C537.987 908.291 532.287 905.774 527.516 901.143C524.985 896.805 524.447 893.054 525.516 888.143C528.817 881.757 533.668 876.85 538.988 872.104C545.181 866.513 551.136 860.708 557.035 854.809C558.707 853.138 560.388 851.476 562.068 849.815C567.958 843.955 573.449 838.001 578.627 831.497C580.925 828.633 583.361 825.991 585.891 823.33C591.862 816.926 597.199 810.093 602.516 803.143C603.604 801.727 604.692 800.312 605.781 798.897C612.084 790.689 618.329 782.439 624.516 774.143C615.943 776.089 608.43 779.3 600.578 783.205L597.217 784.848C591.737 787.527 591.737 787.527 586.301 790.294C583.308 791.717 580.666 791.493 577.508 791.225C577.183 791.197 576.853 791.169 576.516 791.143C574.341 789.599 573.697 788.506 572.516 786.143C572.436 778.235 575.191 773.501 580.535 767.818C584.723 763.68 589.355 761.101 594.578 758.455L597.548 756.926C608.28 751.538 619.402 747.165 630.59 742.834L634.098 741.468C636.376 740.584 638.66 739.714 640.949 738.857L644.184 737.6L647.04 736.517C651.917 733.81 653.907 728.878 656.516 724.143C657.652 722.467 658.79 720.792 659.949 719.132C666.48 709.744 671.863 699.748 677.194 689.644C678.323 687.507 679.469 685.38 680.621 683.256C686.486 672.108 694.225 656.144 692.516 643.143C690.973 639.838 689.545 638.571 686.187 637.174C673.408 633.231 660.914 635.601 648.097 638.032L647.516 638.143L645.183 638.582C596.695 648.109 541.672 669.161 503.516 701.143L500.992 703.225C489.944 712.697 483.763 723.708 479.516 737.518C477.665 743.254 475.506 746.49 470.141 749.455C464.262 750.995 459.648 750.42 454.379 747.545C450.422 744.567 448.281 740.381 446.703 735.768L446.516 733.143L446.328 731.072C445.461 714.224 455.187 700.484 465.968 688.532C483.473 669.524 506.371 656.088 529.563 645.074C531.543 644.13 533.51 643.163 535.477 642.193C570.682 625.006 608.985 613.772 647.516 607.143L649.784 606.752C671.932 603.07 694.736 601.645 714.828 613.018C722.911 619.409 728.932 626.636 730.516 637.143C731.329 646.843 729.659 654.997 726.516 664.143L725.866 666.061C722.277 676.55 717.661 686.339 712.516 696.143L709.992 700.986C705.583 709.418 701.087 717.798 696.516 726.143L699.63 725.272C703.498 724.192 707.368 723.113 711.237 722.035C712.901 721.571 714.565 721.107 716.229 720.641C717.846 720.19 719.462 719.739 721.079 719.289C722.669 718.846 724.259 718.399 725.848 717.948C730.337 716.688 734.801 715.696 739.383 714.815C743.276 713.849 745.2 713.025 747.383 709.615C748.089 708.163 748.757 706.691 749.391 705.205C750.191 703.568 751.003 701.937 751.824 700.311L753.113 697.738C755.537 693.253 758.484 689.155 761.453 685.018L763.277 682.465C764.467 680.802 765.659 679.141 766.852 677.481C768.814 674.723 770.71 671.926 772.6 669.118C782.416 654.563 793.174 640.542 804.516 627.143L805.872 625.533C808.89 621.958 811.934 618.406 815.006 614.877C815.994 613.741 816.98 612.604 817.963 611.463C829.345 598.302 833.454 593.55 838.261 592.689C840.977 592.203 843.916 592.959 848.516 594.143ZM993.68 660.154C997.138 662.248 999.238 663.727 1001.52 667.143C1002.66 675.171 999.042 680.737 994.867 687.155C994.565 687.619 994.26 688.088 993.954 688.562C989.833 694.96 986 701.444 982.391 708.143C981.839 709.164 981.288 710.186 980.72 711.239C971.42 728.652 962.932 746.464 955.499 764.752C954.468 767.257 953.406 769.747 952.336 772.236C947.161 784.339 942.358 796.572 937.701 808.882C937.047 810.609 936.391 812.335 935.732 814.06C932.337 822.966 929.141 831.894 926.504 841.057L925.839 843.302C924.75 847.254 924.279 850.192 925.516 854.143C936.017 854.935 944.062 851.052 952.129 844.533C955.14 842.779 957.082 842.776 960.516 843.143C963.466 845.161 964.348 846.406 965.141 849.893C963.206 859.954 952.179 867.845 944.301 873.416C935.531 879.026 926.215 884.501 915.516 883.143C907.314 881.155 902.316 877.008 897.516 870.143C895.401 865.737 895.321 861.998 895.516 857.143L893.328 859.342C881.771 870.851 868.999 882.765 851.828 883.518C847.551 883.352 844.319 882.152 840.516 880.143L837.453 878.58C830.92 873.159 828.332 866.195 826.516 858.143L823.769 860.775C811.987 871.969 798.975 883.645 781.687 883.287C772.458 882.673 766.681 879.424 760.266 872.83C753.525 862.478 752.57 852.519 754.734 840.459C761.679 810.978 784.836 787.165 809.516 771.143C824.381 762.161 842.255 754.745 859.825 758.657C869.973 761.342 881.557 764.877 887.516 774.143C888.969 784.136 883.578 794.107 878.695 803.14C877.669 805.038 876.665 806.894 875.752 808.7C867.049 825.881 867.049 825.881 860.891 844.08L860.354 846.107C859.833 848.181 859.833 848.181 859.516 851.143L861.516 854.143C869.369 855.107 874.991 852.685 881.32 848.119C884.154 845.869 886.877 843.619 889.516 841.143L890.987 839.775C896.317 834.273 898.489 827.4 901.078 820.33C901.592 818.962 902.108 817.594 902.624 816.226C903.711 813.346 904.79 810.463 905.863 807.577C908.581 800.271 911.36 792.988 914.141 785.705C914.415 784.985 914.69 784.265 914.973 783.523C924.078 759.68 934.226 736.303 944.673 713.022C945.445 711.299 946.216 709.575 946.986 707.851C963.305 671.548 963.305 671.548 977.203 662.768C977.949 662.286 978.696 661.803 979.465 661.307C984.022 658.72 988.803 657.875 993.68 660.154ZM1056.92 719.373C1055.81 713.252 1053.35 709.394 1048.33 705.705C1041.77 701.725 1035.73 701.369 1028.59 703.799C1022.62 706.389 1019.01 710.093 1016.52 716.143C1015.46 723.113 1016.34 727.797 1020.14 733.643C1023.95 737.654 1027.75 739.829 1033.3 740.459C1040.77 740.61 1045.98 739.403 1051.52 734.143C1055.34 729.52 1057.34 725.445 1056.92 719.373ZM1026.95 764.33C1025.24 761.719 1023.29 760.288 1020.51 758.869C1015.93 757.201 1011.93 757.644 1007.33 759.268C995.304 767.284 995.304 767.284 975.506 823.331L974.516 826.143C972.133 832.715 969.809 839.256 968.516 846.143C967.214 856.721 966.933 867.209 973.516 876.143L975.516 876.143L975.516 878.143C980.798 881.232 985.374 883.011 991.519 883.369C1004.08 882.42 1014.43 874.278 1023.36 866.111C1027.89 862.073 1027.89 862.073 1032.52 858.143C1030.65 863.853 1029.71 868.772 1031.14 874.768C1033.02 878.015 1035.32 880.235 1038.52 882.143C1043.42 883.596 1046.84 883.062 1051.52 881.42C1056.74 878.077 1059.03 873.561 1060.88 867.876C1066.49 849.937 1073.3 831.751 1082.57 815.361C1083.23 814.267 1083.87 813.205 1084.52 812.143C1088.56 805.416 1092.86 799.34 1098.83 794.143C1107.04 787.905 1115.14 784.278 1125.52 785.143C1122.75 803.494 1122.75 803.494 1114.66 820.463C1110.06 830.597 1105.49 840.677 1101.83 851.195C1101.47 852.261 1101.12 853.296 1100.77 854.33C1098.54 860.805 1097 866.266 1097.52 873.143C1098.97 877.499 1101.65 879.747 1105.52 882.143C1109.35 883.264 1112.85 883.838 1116.6 882.272C1125.03 877.299 1128.33 870.447 1131.7 861.518C1140.4 838.261 1150.47 814.022 1168.68 796.51C1176.93 789.615 1185.46 784.782 1196.52 785.143C1195.83 790.868 1194.58 795.789 1192.21 801.048C1191.7 802.077 1191.21 803.074 1190.72 804.072C1190.16 805.224 1189.62 806.341 1189.07 807.459C1185.06 815.65 1181.04 823.845 1177.25 832.143C1171.97 844.008 1167.7 856.314 1172.48 869.006C1175.38 874.996 1179.55 879.045 1185.76 881.486C1193.18 883.251 1202.39 883.593 1209.44 880.303L1211.52 879.143C1220.42 874.277 1231.66 867.95 1236.82 858.846C1237.05 858.267 1237.28 857.705 1237.52 857.143C1238.2 857.483 1238.86 857.813 1239.52 858.143C1239.96 860.531 1240.43 862.87 1241.15 865.193C1243.99 872.597 1248.79 877.767 1255.9 881.342C1262.63 883.734 1270.91 884.169 1277.55 881.248L1279.52 880.143C1288.2 875.978 1297.92 870.467 1302.82 861.838L1303.52 860.143L1305.52 860.143C1306.2 859.123 1306.86 858.133 1307.52 857.143C1308.67 861.831 1309.76 866.487 1311.77 870.893C1315.55 875.753 1319.03 879.922 1324.95 882.08C1333.34 884.38 1342.51 883.605 1350.14 879.268C1351.84 878.2 1353.53 877.132 1355.29 876.17C1365.72 870.534 1373.87 861.36 1381.58 852.518C1385.23 847.925 1387.13 845.063 1386.52 839.143C1384.39 836.08 1384.39 836.08 1381.52 834.143C1378.67 834.36 1376.96 834.828 1374.63 836.49L1372.83 838.205C1372.12 838.851 1371.43 839.477 1370.75 840.104C1363.2 847 1355.22 854.213 1344.45 854.455C1342.75 854.462 1342.08 854.464 1341.56 854.176C1341.22 853.985 1340.96 853.669 1340.52 853.143C1344.44 831.05 1344.44 831.05 1355.63 810.967C1358.76 804.817 1361.82 798.657 1364.56 792.321C1365.04 791.189 1365.04 791.189 1365.52 790.08C1366.66 787.465 1367.75 784.896 1368.52 782.143C1368.82 777.575 1368.95 774.02 1366.08 770.268C1356.71 762.5 1342.57 757.964 1330.45 757.58C1307.05 758.614 1283.91 772.54 1268.1 789.275L1265.52 792.143C1255.97 802.523 1248.09 813.532 1242.7 826.643C1240.92 831.145 1239.26 835.139 1236.52 839.143C1229.01 847.05 1220.69 852.629 1209.67 853.232C1208.48 853.319 1207.95 853.357 1207.54 853.156C1207.22 852.998 1206.96 852.692 1206.52 852.143C1209.27 833.833 1209.27 833.833 1218.02 816.768C1222.91 805.643 1229.34 793.763 1229.94 781.443C1229.9 780.087 1229.87 778.771 1229.83 777.455C1229.74 770.928 1228.61 767.733 1224.31 762.83C1220.13 758.893 1215.31 757.99 1209.7 757.83C1191.23 758.507 1173.35 767.042 1159.99 779.674C1159.49 780.173 1159 780.658 1158.52 781.143C1158.45 780.2 1158.39 779.284 1158.33 778.369C1158.25 777.145 1158.16 775.956 1158.08 774.768C1157.86 771.617 1157.93 768.975 1156.52 766.143C1152.25 762.089 1148.3 759.452 1142.52 758.143C1125.12 755.85 1107.77 764.935 1094.21 774.857L1092.52 776.143C1094.37 772.426 1093.98 767.832 1092.89 763.893C1090.73 761.146 1088.62 759.752 1085.52 758.143C1081.65 757.609 1078.24 757.9 1074.52 759.143C1064.31 765.602 1064.31 765.602 1054.06 794.819C1053.52 796.349 1052.98 797.878 1052.44 799.406C1051.3 802.591 1050.17 805.776 1049.05 808.965C1047.38 813.688 1045.71 818.408 1044.03 823.126C1041.45 830.37 1038.88 837.618 1036.32 844.868L1035.52 847.143C1033.63 845.115 1032.52 844.143 1029.89 843.08C1026.15 843.149 1025.26 843.711 1022.27 845.768C1016.7 849.777 1010.56 854.401 1003.45 854.518C1000.63 854.462 1000.63 854.462 999.516 853.143C1003.71 830.513 1003.71 830.513 1014.14 809.325C1015.29 806.665 1016.58 803.94 1017.9 801.163C1023.46 789.468 1029.46 776.854 1026.95 764.33ZM812.516 800.143C811.863 800.754 811.211 801.365 810.539 801.994C800.164 812.003 790.625 826.318 790.141 841.08C790.162 845.466 790.196 846.713 792.891 850.33C797.025 853.185 799.065 853.408 803.965 852.752C820.216 848.87 832.252 830.463 840.516 817.143C842.988 813.017 845.368 808.848 847.703 804.643C848.268 803.64 848.833 802.638 849.416 801.605C852.625 795.653 854.434 790.945 854.516 784.143C853.212 781.851 853.212 781.851 850.516 781.143C835.141 779.255 822.896 790.314 812.516 800.143ZM1291.2 802.416C1291.99 801.643 1292.75 800.893 1293.52 800.143C1303.93 789.891 1317.1 779.741 1332.52 781.143C1335.09 782.432 1335.54 783.464 1336.52 786.143C1335.72 791.476 1332.97 796.575 1330.41 801.268C1330 801.99 1329.6 802.691 1329.2 803.393C1321.78 816.578 1313.93 831.178 1302.59 841.424C1301.89 842.008 1301.2 842.575 1300.52 843.143C1295.87 847.181 1291.36 850.869 1285.43 852.772C1281.11 853.609 1277.82 852.968 1274.14 850.643C1272.18 847.619 1271.59 845.459 1271.37 841.877C1272.18 826.846 1281.05 813.024 1291.2 802.416ZM866.828 985.58C865.934 975.74 863.287 968.732 855.516 962.143C846.322 955.98 835.738 955.087 825.496 959.42C819.045 963.149 813.791 969.081 811.453 976.205C809.194 985.834 810.509 994.611 815.516 1003.14C819.484 1007.64 824.501 1011.99 830.516 1013.14C840.966 1013.85 849.246 1013.46 857.691 1006.77C863.83 1001.3 866.128 993.564 866.828 985.58ZM910.364 974.949C907.103 968.222 904.377 959.523 896.941 956.865C896.484 956.869 895.994 956.862 895.484 956.854C891.64 956.796 886.669 956.722 886.389 961.141L886.386 963.798L886.377 966.802L886.383 970.072C886.381 972.334 886.38 974.596 886.379 976.857C886.385 980.441 886.391 984.025 886.385 987.609C886.381 989.941 886.379 992.273 886.38 994.604L886.383 997.947L886.377 1001.21L886.386 1004.23C886.389 1007.29 886.534 1009.2 887.516 1012.14L899.516 1012.14L900.516 982.143L910.516 1001.14L918.516 1001.14L927.516 984.143L928.516 1012.14C928.909 1012.34 929.225 1012.5 929.555 1012.62C930.903 1013.1 932.483 1012.95 940.516 1012.14L940.516 958.143L928.516 958.143C927.802 959.571 927.06 960.985 926.3 962.389L924.793 965.15L923.162 968.139L921.453 971.268C919.474 974.893 917.495 978.518 915.516 982.143C913.494 979.888 911.773 977.634 910.364 974.949ZM596.016 956.893L599.297 956.877C606.376 957.461 612.212 960.523 617.516 965.143C623.919 973.878 624.147 982.634 623.516 993.143C622.863 996.003 622.051 997.565 620.516 1000.14L618.953 1003.21C614.95 1008.03 609.446 1011.17 603.516 1013.14C595.106 1013.76 586.641 1014.29 579.516 1009.14C573.792 1003.97 569.592 997.973 569.082 990.057C569.059 988.627 569.058 987.197 569.078 985.768L569.099 983.503C569.314 976.082 571.064 970.971 575.953 965.33L578.516 963.143L580.953 960.955C585.7 957.597 590.281 956.865 596.016 956.893ZM1306.52 958.143C1310.52 958.055 1314.52 958.002 1318.52 957.955L1321.93 957.879C1330.95 957.8 1334.14 957.772 1336.67 959.063C1338.05 959.772 1339.23 960.88 1341.07 962.595C1345.57 967.82 1345.86 971.377 1345.8 978.092C1345.22 984.331 1341.9 987.87 1337.52 992.143C1342.3 999.8 1342.3 999.8 1347.45 1007.21C1349.52 1010.14 1349.52 1010.14 1349.52 1012.14C1344.48 1013.24 1339.38 1014.24 1334.52 1012.14C1330.06 1007.58 1327.37 1001.54 1324.74 995.795L1323.52 994.143L1319.52 994.143L1318.52 1012.14C1310.02 1013.02 1310.02 1013.02 1307.52 1013.14C1306.52 1012.14 1306.52 1012.14 1306.4 1009.97L1306.4 1007.07L1306.4 1003.8C1306.41 1002.62 1306.41 1001.44 1306.42 1000.23C1306.42 999.035 1306.42 997.838 1306.42 996.605C1306.43 992.763 1306.44 988.922 1306.45 985.08C1306.46 982.483 1306.46 979.886 1306.47 977.289C1306.48 970.907 1306.49 964.525 1306.52 958.143ZM518.516 958.143L554.516 958.143L554.516 969.143L531.516 969.143L531.516 981.143L549.516 981.143L549.516 981.143L549.516 981.144C550.058 984.399 550.306 985.888 550.26 987.367C550.221 988.615 549.973 989.856 549.516 992.143L531.516 992.143L531.516 1012.14C526.764 1012.74 524.835 1012.98 523.004 1012.66C521.752 1012.44 520.546 1011.95 518.516 1011.14L518.516 958.143ZM679.516 962.143C670.516 958.143 670.516 958.143 645.516 958.143L645.516 1012.14C652.111 1012.88 653.873 1013.07 655.524 1012.73C656.126 1012.61 656.714 1012.41 657.516 1012.14L657.516 993.143C661.484 993.636 661.484 993.636 662.559 995.861C663.516 998.143 663.516 998.143 665.066 1000.8L666.828 1003.64C668.566 1006.49 668.566 1006.49 670.516 1009.14C673.235 1011.85 674.542 1013.08 678.41 1013.31L681.328 1012.89C683.06 1012.66 684.791 1012.42 686.516 1012.14C686.516 1009.38 686.516 1009.38 680.053 1000.08L678.828 998.33C678.012 997.157 677.195 995.984 676.379 994.811L674.516 992.143C676.219 991.206 677.881 990.195 679.516 989.143C683.158 985.249 684.841 981.346 684.953 976.018C684.63 970.175 683.737 966.364 679.516 962.143ZM729.516 958.143L741.516 958.143C743.089 962.077 744.131 965.444 745.023 969.537L745.824 973.18L746.641 976.955L747.48 980.789C748.163 983.906 748.841 987.024 749.516 990.143L750.234 987.313C751.112 983.859 751.995 980.406 752.879 976.953C753.261 975.457 753.642 973.96 754.022 972.463C754.568 970.315 755.117 968.168 755.668 966.022L756.183 963.982C757.402 959.257 757.402 959.257 758.516 958.143L770.516 958.143L778.516 989.143C780.028 985.361 781.202 981.876 782.242 977.967L783.18 974.461L784.141 970.83L785.125 967.141C785.925 964.142 786.72 961.142 787.516 958.143L799.516 958.143C798.821 964.322 797.257 970.13 795.574 976.107L794.704 979.239C793.791 982.52 792.872 985.8 791.953 989.08C791.331 991.312 790.709 993.545 790.088 995.777C788.568 1001.23 787.044 1006.69 785.516 1012.14C780.837 1012.89 777.166 1013.16 772.516 1012.14C770.332 1005.16 768.484 998.143 766.828 991.018L766.146 988.119C765.6 985.794 765.057 983.469 764.516 981.143C763.743 983.892 762.972 986.642 762.203 989.393L761.513 991.863C759.928 997.568 758.453 1003.29 757.094 1009.05C756.516 1011.14 756.516 1011.14 755.516 1012.14C753.496 1012.22 751.474 1012.23 749.453 1012.21L746.105 1012.18L743.516 1012.14C741.35 1006.6 739.576 1001.09 738.07 995.33L737.418 992.866C736.967 991.159 736.518 989.451 736.072 987.743C735.392 985.148 734.702 982.555 734.012 979.963C733.572 978.294 733.133 976.625 732.695 974.955L732.077 972.638C730.825 967.812 730.039 963.102 729.516 958.143ZM978.516 958.143L990.516 958.143L992.133 962.697C996.704 975.509 1001.41 988.249 1006.42 1000.9L1007.64 1004.04L1008.74 1006.81C1009.52 1009.14 1009.52 1009.14 1009.52 1012.14C1007.19 1013.31 1005.67 1013.34 1003.08 1013.39L1000.71 1013.47C997.936 1013.06 997.178 1012.37 995.516 1010.14C994.566 1007.95 994.566 1007.95 993.828 1005.58L993.066 1003.2C992.516 1001.14 992.516 1001.14 992.516 999.143L975.516 1000.14L971.516 1012.14C967.474 1012.78 963.609 1013.27 959.516 1013.14C957.827 1008.47 959.36 1005.02 961.19 1000.9C961.4 1000.43 961.615 999.948 961.828 999.455C962.568 997.681 963.307 995.906 964.043 994.131L965.249 991.239C968.025 984.452 970.585 977.58 973.189 970.726L974.414 967.518L975.497 964.666C976.394 962.444 977.444 960.286 978.516 958.143ZM1043.51 960.861C1040.52 958.143 1040.52 958.143 1030.52 958.143L1030.52 1012.14C1034.71 1013.19 1037.31 1012.87 1041.52 1012.14C1042.35 1007.26 1042.64 1002.56 1042.65 997.613L1042.64 994.955L1042.65 992.262L1042.65 989.662C1042.64 987.263 1042.53 985.205 1042.01 982.86C1041.84 982.276 1041.68 981.709 1041.52 981.143L1043.52 981.143C1043.52 983.143 1043.52 983.143 1044.6 985.063L1046.11 987.397L1047.79 989.988L1049.58 992.705C1053.85 999.321 1058.04 1006.45 1063.52 1012.14C1067.95 1013.49 1070.02 1013.27 1074.52 1012.14L1074.52 958.143L1062.52 958.143L1062.52 989.143C1060.38 986.002 1058.24 982.857 1056.08 979.734C1054.04 976.816 1052.01 973.903 1050.08 970.913C1049.16 969.484 1048.24 968.064 1047.3 966.653L1045.95 964.643C1045.17 963.361 1044.36 962.099 1043.51 960.861ZM1093.52 958.143L1105.52 958.143C1107.83 964.762 1109.63 971.375 1111.2 978.205L1111.88 981.117C1112.43 983.458 1112.98 985.8 1113.52 988.143C1115.31 984.882 1116.29 981.657 1117.24 978.065C1117.55 976.904 1117.86 975.744 1118.18 974.549C1118.5 973.342 1118.81 972.136 1119.14 970.893L1120.12 967.19C1120.93 964.175 1121.72 961.159 1122.52 958.143L1134.52 958.143C1136.83 968.703 1139.14 979.263 1141.52 990.143C1143.89 982.265 1143.89 982.265 1146.12 974.354L1146.91 971.443C1147.17 970.478 1147.43 969.512 1147.7 968.518L1148.53 965.475C1149.19 963.031 1149.85 960.587 1150.52 958.143L1163.52 958.143C1163.17 959.388 1162.82 960.633 1162.46 961.915C1161.16 966.58 1159.86 971.245 1158.55 975.91C1157.99 977.92 1157.43 979.931 1156.87 981.941C1156.06 984.848 1155.24 987.755 1154.43 990.662C1154.19 991.546 1153.94 992.43 1153.68 993.34C1151.94 999.601 1150.22 1005.87 1148.52 1012.14C1143.89 1013.16 1140.17 1012.98 1135.52 1012.14C1132.97 1005.27 1131.37 998.331 1129.87 991.176C1129.36 987.346 1129.36 987.346 1127.52 984.143C1125.21 993.383 1122.9 1002.62 1120.52 1012.14C1115.09 1012.92 1112.52 1013.24 1107.52 1012.14L1106.23 1007.55L1105.38 1004.52C1104.76 1002.29 1104.13 1000.06 1103.51 997.833C1101.85 991.903 1100.19 985.977 1098.49 980.057L1097.52 976.638C1096.9 974.464 1096.28 972.29 1095.65 970.117L1094.8 967.123C1094.55 966.256 1094.3 965.388 1094.05 964.495C1093.52 962.143 1093.52 962.143 1093.52 958.143ZM1218.52 958.143L1182.52 958.143L1182.52 1012.14C1186.15 1012.6 1189.78 1013.11 1193.44 1013.27L1196.12 1013.28L1199.1 1013.28L1202.14 1013.27C1202.45 1013.27 1202.76 1013.27 1203.07 1013.27C1208.63 1013.3 1214.04 1013.32 1219.52 1012.14L1219.55 1009.99L1219.58 1007.21C1219.6 1005.52 1219.59 1003.83 1219.52 1002.14C1218.52 1001.14 1218.52 1001.14 1216.29 1001.03L1213.39 1001.04L1210.25 1001.05L1206.95 1001.08C1204.81 1001.09 1202.66 1001.1 1200.51 1001.11L1195.52 1001.14L1195.52 990.143C1197.21 990.162 1198.91 990.18 1200.6 990.191L1202.7 990.205C1207.09 990.26 1211.23 990.199 1215.52 989.143L1215.55 986.99L1215.58 984.205C1215.6 982.518 1215.59 980.829 1215.52 979.143C1214.52 978.143 1214.52 978.143 1212.57 978.029L1210.04 978.045L1207.32 978.055L1204.45 978.08C1201.75 978.093 1199.04 978.106 1196.34 978.127L1194.52 978.143L1195.52 976.143L1194.52 969.143L1218.52 969.143C1218.89 967.652 1219.12 966.717 1219.22 965.767C1219.38 964.17 1219.14 962.534 1218.52 958.143ZM1256.52 958.143L1268.52 958.143C1272.62 967.863 1276.53 977.655 1280.36 987.491C1281.05 989.275 1281.75 991.057 1282.46 992.837C1283.48 995.435 1284.5 998.038 1285.51 1000.64C1285.98 1001.83 1285.98 1001.83 1286.47 1003.05L1287.33 1005.3L1288.1 1007.26C1288.6 1009.52 1288.23 1010.96 1287.52 1013.14L1281.66 1013.24C1279.35 1013.14 1277.65 1013.05 1275.52 1012.14C1274.25 1009.96 1274.25 1009.96 1273.27 1007.27C1272.93 1006.38 1272.6 1005.5 1272.25 1004.59C1271.52 1002.14 1271.52 1002.14 1271.52 999.143L1252.52 999.143C1251.86 1002.11 1251.2 1005.08 1250.52 1008.14C1249.45 1011.21 1249.45 1011.21 1247.52 1013.14C1243.29 1013.81 1239.56 1013.49 1235.52 1012.14C1237.91 1004.65 1240.69 997.32 1243.54 989.988C1244.32 987.978 1245.09 985.966 1245.87 983.953C1249.23 975.263 1252.79 966.68 1256.52 958.143ZM823.516 989.143C822.993 983.081 823.94 978.563 827.266 973.455C831.86 968.733 836.026 967.653 842.516 968.143C847.027 969.647 849.39 971.537 851.766 975.643C854.505 981.433 854.525 988.113 852.516 994.143C849.335 998.505 846.794 1001.42 841.516 1003.14C836.629 1003.43 833.331 1002.64 829.141 1000.08C826.031 996.601 824.543 993.665 823.516 989.143ZM586.516 971.143C581.937 976.959 580.796 981.799 581.516 989.143C582.511 993.722 584.022 996.603 587.203 1000.08C591.116 1002.52 593.93 1003.42 598.516 1003.14C602.951 1002.01 605.702 1000.43 608.453 996.83C611.7 991.025 611.355 984.574 610.516 978.143C609.108 973.968 607.228 971.618 603.516 969.143C597.351 967.856 591.761 967.177 586.516 971.143ZM1320.73 969.011C1320.01 969.059 1319.27 969.107 1318.52 969.143L1318.52 983.143L1318.52 983.143C1321.9 983.268 1323.58 983.33 1325.22 983.075C1326.83 982.823 1328.4 982.261 1331.52 981.143C1333.8 979.268 1333.8 979.268 1333.89 976.268C1333.72 973.153 1333.72 973.153 1332.2 970.768C1328.46 968.505 1324.84 968.742 1320.73 969.011ZM657.453 975.018C657.469 973.059 657.489 971.101 657.516 969.143C658 969.113 658.481 969.079 658.958 969.047C663.307 968.747 667.331 968.47 671.266 970.705C671.961 971.858 672.336 972.481 672.52 973.157C672.736 973.951 672.686 974.818 672.578 976.705C671.813 980.183 671.813 980.183 669.453 982.08C665.587 983.478 662.614 983.351 658.516 983.143C657.96 982.193 657.662 981.683 657.513 981.134C657.34 980.498 657.364 979.809 657.418 978.322L657.453 975.018ZM1261.52 975.143C1260.84 976.933 1260.18 978.725 1259.52 980.518L1258.39 983.541C1257.85 984.895 1257.61 985.504 1257.52 986.134C1257.44 986.65 1257.47 987.18 1257.52 988.143L1266.52 988.143C1267.13 987.175 1267.46 986.664 1267.52 986.125C1267.58 985.524 1267.31 984.888 1266.74 983.541L1265.58 980.518C1265.2 979.515 1264.82 978.512 1264.43 977.479C1264.13 976.708 1263.82 975.937 1263.52 975.143L1261.52 975.143ZM983.516 976.143C982.845 977.766 982.179 979.391 981.516 981.018L980.391 983.76C979.858 984.982 979.612 985.547 979.516 986.136C979.434 986.643 979.462 987.167 979.516 988.143L988.516 988.143C988.065 986.515 987.605 984.891 987.141 983.268L986.367 980.525C985.655 977.997 985.655 977.997 983.516 976.143Z" fill="#ffffff"></path></svg>
